<svg width="10" height="10" viewBox="0 0 10 10" fill="none" xmlns="http://www.w3.org/2000/svg">
<path d="M8.19531 2.09063C8.19218 2.08594 8.18906 2.08126 8.18281 2.07969C7.58749 1.80626 6.95781 1.61094 6.31249 1.50001C6.30624 1.49844 6.29999 1.50001 6.29531 1.50157C6.29062 1.50313 6.28593 1.50782 6.28281 1.51407C6.19687 1.66876 6.11874 1.82969 6.04999 1.99219C5.35312 1.88594 4.64531 1.88594 3.94999 1.99219C3.87968 1.82813 3.80156 1.66876 3.71406 1.51407C3.71093 1.50938 3.70624 1.50469 3.70156 1.50157C3.69687 1.49844 3.69062 1.49844 3.68437 1.49844C3.03906 1.60938 2.40937 1.80469 1.81406 2.07813C1.80937 2.07969 1.80468 2.08438 1.80156 2.08907C0.610932 3.86719 0.284369 5.60313 0.443744 7.31563C0.443744 7.32032 0.445307 7.32344 0.446869 7.32813C0.448432 7.33282 0.451557 7.33438 0.454682 7.33751C1.14843 7.85157 1.92343 8.24376 2.74843 8.49688C2.75468 8.49844 2.76093 8.49844 2.76562 8.49688C2.77031 8.49532 2.77656 8.49063 2.77968 8.48594C2.95624 8.24532 3.11406 7.98907 3.24843 7.72344C3.24999 7.72032 3.25156 7.71563 3.25156 7.71094C3.25156 7.70626 3.25156 7.70313 3.24999 7.69844C3.24843 7.69376 3.24687 7.69063 3.24374 7.68907C3.24062 7.68751 3.23749 7.68438 3.23281 7.68282C2.98593 7.58751 2.74531 7.47344 2.51562 7.34063C2.51093 7.33751 2.50781 7.33438 2.50468 7.33126C2.50156 7.32813 2.49999 7.32188 2.49999 7.31719C2.49999 7.31251 2.49999 7.30782 2.50312 7.30313C2.50624 7.29844 2.50781 7.29532 2.51249 7.29219C2.56093 7.25626 2.60937 7.21876 2.65468 7.18126C2.65937 7.17813 2.66406 7.17501 2.66874 7.17501C2.67343 7.17501 2.67968 7.17501 2.68437 7.17657C4.18749 7.86251 5.81562 7.86251 7.30156 7.17657C7.30624 7.17501 7.31249 7.17344 7.31718 7.17344C7.32187 7.17344 7.32812 7.17657 7.33124 7.17969C7.37656 7.21719 7.42499 7.25626 7.47343 7.29219C7.47656 7.29532 7.47968 7.29844 7.48281 7.30313C7.48593 7.30782 7.48593 7.31251 7.48593 7.31719C7.48593 7.32188 7.48437 7.32657 7.48124 7.33126C7.47812 7.33594 7.47499 7.33907 7.47187 7.34063C7.24218 7.47501 7.00312 7.58907 6.75468 7.68126C6.75156 7.68282 6.74687 7.68438 6.74374 7.68751C6.74062 7.69063 6.73906 7.69376 6.73749 7.69844C6.73593 7.70313 6.73593 7.70626 6.73593 7.71094C6.73593 7.71563 6.73749 7.71876 6.73906 7.72344C6.87656 7.98907 7.03281 8.24376 7.20781 8.48594C7.21093 8.49063 7.21718 8.49532 7.22187 8.49688C7.22656 8.49844 7.23437 8.49844 7.23906 8.49688C8.06562 8.24376 8.84218 7.85157 9.53749 7.33751C9.54062 7.33438 9.54374 7.33126 9.54531 7.32813C9.54687 7.32501 9.54843 7.32032 9.54843 7.31563C9.74062 5.33438 9.22812 3.61407 8.19062 2.08907L8.19531 2.09063ZM3.47656 6.27344C3.02343 6.27344 2.65156 5.85782 2.65156 5.34844C2.65156 4.83907 3.01718 4.42344 3.47656 4.42344C3.94062 4.42344 4.30937 4.84219 4.30156 5.34844C4.30156 5.85938 3.93593 6.27344 3.47656 6.27344ZM6.52968 6.27344C6.07656 6.27344 5.70468 5.85782 5.70468 5.34844C5.70468 4.83907 6.07031 4.42344 6.52968 4.42344C6.99374 4.42344 7.36249 4.84219 7.35468 5.34844C7.35468 5.85938 6.99218 6.27344 6.52968 6.27344Z" fill="#FF8E4D"/>
</svg>
