<svg width="10" height="10" viewBox="0 0 10 10" fill="none" xmlns="http://www.w3.org/2000/svg">
<path d="M9 5C9 2.79063 7.20937 1 5 1C2.79063 1 1 2.79063 1 5C1 6.875 2.29219 8.45 4.03438 8.88281V6.22188H3.20937V5H4.03438V4.47344C4.03438 3.1125 4.65 2.48125 5.9875 2.48125C6.24063 2.48125 6.67812 2.53125 6.85781 2.58125V3.6875C6.76406 3.67812 6.6 3.67188 6.39531 3.67188C5.73906 3.67188 5.48594 3.92031 5.48594 4.56563V5H6.79219L6.56719 6.22188H5.48438V8.97031C7.46563 8.73125 9 7.04531 9 5Z" fill="#FF8E4D"/>
</svg>
