<svg width="10" height="10" viewBox="0 0 10 10" fill="none" xmlns="http://www.w3.org/2000/svg">
<path d="M2.21875 2.49688C2.21875 1.67031 2.88906 1 3.71563 1H6.28438C7.11094 1 7.78125 1.67031 7.78125 2.49688C7.78125 3.02031 7.5125 3.48125 7.10625 3.74844C7.5125 4.01562 7.78125 4.47656 7.78125 5C7.78125 5.82656 7.11094 6.49687 6.28438 6.49687H6.25156C5.86406 6.49687 5.51094 6.35 5.24531 6.10781V7.4875C5.24531 8.325 4.55781 9 3.72344 9C2.89844 9 2.21875 8.33125 2.21875 7.50313C2.21875 6.97969 2.4875 6.51875 2.89375 6.25156C2.4875 5.98438 2.21875 5.52344 2.21875 5C2.21875 4.47656 2.4875 4.01562 2.89375 3.74844C2.4875 3.48125 2.21875 3.02031 2.21875 2.49688ZM4.75469 3.99375H3.71563C3.15938 3.99375 2.70937 4.44375 2.70937 5C2.70937 5.55313 3.15625 6.00312 3.70937 6.00625H4.75469V3.99375ZM5.24531 5C5.24531 5.55625 5.69531 6.00625 6.25156 6.00625H6.28438C6.84063 6.00625 7.29063 5.55625 7.29063 5C7.29063 4.44375 6.84063 3.99375 6.28438 3.99375H6.25156C5.69531 3.99375 5.24531 4.44375 5.24531 5ZM3.71563 6.49687H3.70937C3.15625 6.5 2.70937 6.95 2.70937 7.50313C2.70937 8.05625 3.16563 8.50937 3.72344 8.50937C4.29063 8.50937 4.75469 8.05 4.75469 7.48594V6.49531H3.71563V6.49687ZM3.71563 1.49063C3.15938 1.49063 2.70937 1.94063 2.70937 2.49688C2.70937 3.05313 3.15938 3.50312 3.71563 3.50312H4.75469V1.49063H3.71563ZM5.24531 3.50312H6.28438C6.84063 3.50312 7.29063 3.05313 7.29063 2.49688C7.29063 1.94063 6.84063 1.49063 6.28438 1.49063H5.24531V3.50312Z" fill="#FF8E4D"/>
</svg>
