<svg width="10" height="10" viewBox="0 0 10 10" fill="none" xmlns="http://www.w3.org/2000/svg">
<path d="M3.71719 7.20937C3.71719 7.24062 3.68125 7.26562 3.63594 7.26562C3.58437 7.27031 3.54844 7.24531 3.54844 7.20937C3.54844 7.17812 3.58438 7.15312 3.62969 7.15312C3.67656 7.14844 3.71719 7.17344 3.71719 7.20937ZM3.23125 7.13906C3.22031 7.17031 3.25156 7.20625 3.29844 7.21562C3.33906 7.23125 3.38594 7.21562 3.39531 7.18437C3.40469 7.15312 3.375 7.11719 3.32812 7.10313C3.2875 7.09219 3.24219 7.10781 3.23125 7.13906ZM3.92188 7.1125C3.87656 7.12344 3.84531 7.15313 3.85 7.18906C3.85469 7.22031 3.89531 7.24063 3.94219 7.22969C3.9875 7.21875 4.01875 7.18906 4.01406 7.15781C4.00937 7.12813 3.96719 7.10781 3.92188 7.1125ZM4.95 1.125C2.78281 1.125 1.125 2.77031 1.125 4.9375C1.125 6.67031 2.21563 8.15313 3.77344 8.675C3.97344 8.71094 4.04375 8.5875 4.04375 8.48594C4.04375 8.38906 4.03906 7.85469 4.03906 7.52656C4.03906 7.52656 2.94531 7.76094 2.71563 7.06094C2.71563 7.06094 2.5375 6.60625 2.28125 6.48906C2.28125 6.48906 1.92344 6.24375 2.30625 6.24844C2.30625 6.24844 2.69531 6.27969 2.90937 6.65156C3.25156 7.25469 3.825 7.08125 4.04844 6.97813C4.08438 6.72813 4.18594 6.55469 4.29844 6.45156C3.425 6.35469 2.54375 6.22812 2.54375 4.725C2.54375 4.29531 2.6625 4.07969 2.9125 3.80469C2.87187 3.70312 2.73906 3.28438 2.95312 2.74375C3.27969 2.64219 4.03125 3.16563 4.03125 3.16563C4.34375 3.07813 4.67969 3.03281 5.0125 3.03281C5.34531 3.03281 5.68125 3.07813 5.99375 3.16563C5.99375 3.16563 6.74531 2.64063 7.07188 2.74375C7.28594 3.28594 7.15313 3.70312 7.1125 3.80469C7.3625 4.08125 7.51562 4.29687 7.51562 4.725C7.51562 6.23281 6.59531 6.35312 5.72188 6.45156C5.86563 6.575 5.9875 6.80937 5.9875 7.17656C5.9875 7.70312 5.98281 8.35469 5.98281 8.48281C5.98281 8.58438 6.05469 8.70781 6.25313 8.67188C7.81563 8.15312 8.875 6.67031 8.875 4.9375C8.875 2.77031 7.11719 1.125 4.95 1.125ZM2.64375 6.51406C2.62344 6.52969 2.62812 6.56563 2.65469 6.59531C2.67969 6.62031 2.71563 6.63125 2.73594 6.61094C2.75625 6.59531 2.75156 6.55937 2.725 6.52969C2.7 6.50469 2.66406 6.49375 2.64375 6.51406ZM2.475 6.3875C2.46406 6.40781 2.47969 6.43281 2.51094 6.44844C2.53594 6.46406 2.56719 6.45937 2.57812 6.4375C2.58906 6.41719 2.57344 6.39219 2.54219 6.37656C2.51094 6.36719 2.48594 6.37187 2.475 6.3875ZM2.98125 6.94375C2.95625 6.96406 2.96563 7.01094 3.00156 7.04063C3.0375 7.07656 3.08281 7.08125 3.10313 7.05625C3.12344 7.03594 3.11406 6.98906 3.08281 6.95937C3.04844 6.92344 3.00156 6.91875 2.98125 6.94375ZM2.80312 6.71406C2.77812 6.72969 2.77812 6.77031 2.80312 6.80625C2.82812 6.84219 2.87031 6.85781 2.89062 6.84219C2.91563 6.82187 2.91563 6.78125 2.89062 6.74531C2.86875 6.70938 2.82812 6.69375 2.80312 6.71406Z" fill="#FF8E4D"/>
</svg>
