<svg width="10" height="10" viewBox="0 0 10 10" fill="none" xmlns="http://www.w3.org/2000/svg">
<path d="M5.00469 3.20311C4.0125 3.19999 3.20625 4.00311 3.20312 4.9953C3.2 5.98749 4.00313 6.79374 4.99531 6.79686C5.9875 6.79999 6.79375 5.99686 6.79688 5.00468C6.8 4.01249 5.99687 3.20624 5.00469 3.20311ZM4.99531 3.83436C5.63906 3.83124 6.1625 4.35155 6.16563 4.9953C6.16875 5.63905 5.64844 6.16249 5.00469 6.16561C4.36094 6.16874 3.8375 5.64843 3.83437 5.00468C3.83125 4.36093 4.35156 3.83749 4.99531 3.83436ZM6.45469 3.12968C6.45469 2.89843 6.64219 2.71093 6.87344 2.71093C7.10469 2.71093 7.29219 2.89843 7.29219 3.12968C7.29219 3.36093 7.10469 3.54843 6.87344 3.54843C6.64219 3.54843 6.45469 3.36093 6.45469 3.12968ZM8.48125 3.55468C8.45469 2.99374 8.32656 2.49686 7.91563 2.08749C7.50625 1.67811 7.00938 1.54999 6.44844 1.52186C5.87031 1.48905 4.1375 1.48905 3.55938 1.52186C3 1.54843 2.50312 1.67655 2.09219 2.08593C1.68125 2.4953 1.55469 2.99218 1.52656 3.55311C1.49375 4.13124 1.49375 5.86405 1.52656 6.44217C1.55312 7.00311 1.68125 7.49999 2.09219 7.90936C2.50312 8.31874 2.99844 8.44686 3.55938 8.47499C4.1375 8.5078 5.87031 8.5078 6.44844 8.47499C7.00938 8.44843 7.50625 8.3203 7.91563 7.90936C8.325 7.49999 8.45312 7.00311 8.48125 6.44217C8.51406 5.86405 8.51406 4.1328 8.48125 3.55468ZM7.73438 7.06249C7.6125 7.36874 7.37656 7.60468 7.06875 7.72811C6.60781 7.91093 5.51406 7.86874 5.00469 7.86874C4.49531 7.86874 3.4 7.90936 2.94062 7.72811C2.63437 7.60624 2.39844 7.3703 2.275 7.06249C2.09219 6.60155 2.13438 5.5078 2.13438 4.99843C2.13438 4.48905 2.09375 3.39374 2.275 2.93436C2.39688 2.62811 2.63281 2.39218 2.94062 2.26874C3.40156 2.08593 4.49531 2.12811 5.00469 2.12811C5.51406 2.12811 6.60937 2.08749 7.06875 2.26874C7.375 2.39061 7.61094 2.62655 7.73438 2.93436C7.91719 3.3953 7.875 4.48905 7.875 4.99843C7.875 5.5078 7.91719 6.60311 7.73438 7.06249Z" fill="#FF8E4D"/>
</svg>
