<svg width="10" height="10" viewBox="0 0 10 10" fill="none" xmlns="http://www.w3.org/2000/svg">
<path d="M8 1.5H1.99844C1.72344 1.5 1.5 1.72656 1.5 2.00469V7.99531C1.5 8.27344 1.72344 8.5 1.99844 8.5H8C8.275 8.5 8.5 8.27344 8.5 7.99531V2.00469C8.5 1.72656 8.275 1.5 8 1.5ZM3.61562 7.5H2.57812V4.15938H3.61719V7.5H3.61562ZM3.09687 2.5C3.42969 2.5 3.69844 2.76875 3.69844 3.10156C3.69844 3.43437 3.42969 3.70312 3.09687 3.70312C2.76406 3.70312 2.49531 3.43437 2.49531 3.10156C2.49531 2.76875 2.76406 2.5 3.09687 2.5ZM7.50469 7.5H6.46719V5.875C6.46719 5.4875 6.45937 4.98906 5.92812 4.98906C5.3875 4.98906 5.30469 5.41094 5.30469 5.84688V7.5H4.26719V4.15938H5.2625V4.61562H5.27656C5.41563 4.35312 5.75469 4.07656 6.25938 4.07656C7.30938 4.07656 7.50469 4.76875 7.50469 5.66875V7.5Z" fill="#FF8E4D"/>
</svg>
