<svg width="10" height="10" viewBox="0 0 10 10" fill="none" xmlns="http://www.w3.org/2000/svg">
<path d="M7.45156 2.51719C6.79687 1.86094 5.925 1.5 4.99844 1.5C3.08594 1.5 1.52969 3.05625 1.52969 4.96875C1.52969 5.57969 1.68906 6.17656 1.99219 6.70312L1.5 8.5L3.33906 8.01719C3.84531 8.29375 4.41562 8.43906 4.99687 8.43906H4.99844C6.90937 8.43906 8.5 6.88281 8.5 4.97031C8.5 4.04375 8.10625 3.17344 7.45156 2.51719ZM4.99844 7.85469C4.47969 7.85469 3.97187 7.71562 3.52969 7.45312L3.425 7.39062L2.33437 7.67656L2.625 6.6125L2.55625 6.50313C2.26719 6.04375 2.11562 5.51406 2.11562 4.96875C2.11562 3.37969 3.40937 2.08594 5 2.08594C5.77031 2.08594 6.49375 2.38594 7.0375 2.93125C7.58125 3.47656 7.91563 4.2 7.91406 4.97031C7.91406 6.56094 6.5875 7.85469 4.99844 7.85469ZM6.57969 5.69531C6.49375 5.65156 6.06719 5.44219 5.9875 5.41406C5.90781 5.38438 5.85 5.37031 5.79219 5.45781C5.73438 5.54531 5.56875 5.73906 5.51719 5.79844C5.46719 5.85625 5.41563 5.86406 5.32969 5.82031C4.82031 5.56563 4.48594 5.36563 4.15 4.78906C4.06094 4.63594 4.23906 4.64688 4.40469 4.31563C4.43281 4.25781 4.41875 4.20781 4.39687 4.16406C4.375 4.12031 4.20156 3.69375 4.12969 3.52031C4.05937 3.35156 3.9875 3.375 3.93438 3.37188C3.88438 3.36875 3.82656 3.36875 3.76875 3.36875C3.71094 3.36875 3.61719 3.39062 3.5375 3.47656C3.45781 3.56406 3.23438 3.77344 3.23438 4.2C3.23438 4.62656 3.54531 5.03906 3.5875 5.09688C3.63125 5.15469 4.19844 6.02969 5.06875 6.40625C5.61875 6.64375 5.83437 6.66406 6.10938 6.62344C6.27656 6.59844 6.62187 6.41406 6.69375 6.21094C6.76562 6.00781 6.76563 5.83438 6.74375 5.79844C6.72344 5.75938 6.66563 5.7375 6.57969 5.69531Z" fill="#FF8E4D"/>
</svg>
